{
	"asset":{
		"generator":"Khronos glTF Blender I/O v3.5.30",
		"version":"2.0"
	},
	"scene":0,
	"scenes":[
		{
			"name":"Scene",
			"nodes":[
				0
			]
		}
	],
	"nodes":[
		{
			"mesh":0,
			"name":"Spiral"
		}
	],
	"meshes":[
		{
			"name":"Circle",
			"primitives":[
				{
					"attributes":{
						"POSITION":0,
						"TEXCOORD_0":1,
						"NORMAL":2
					},
					"indices":3
				}
			]
		}
	],
	"accessors":[
		{
			"bufferView":0,
			"componentType":5126,
			"count":2852,
			"max":[
				4.64973783493042,
				4.64973783493042,
				2.188352346420288
			],
			"min":[
				-4.64973783493042,
				-4.64973783493042,
				-35.78834915161133
			],
			"type":"VEC3"
		},
		{
			"bufferView":1,
			"componentType":5126,
			"count":2852,
			"type":"VEC2"
		},
		{
			"bufferView":2,
			"componentType":5126,
			"count":2852,
			"type":"VEC3"
		},
		{
			"bufferView":3,
			"componentType":5123,
			"count":12852,
			"type":"SCALAR"
		}
	],
	"bufferViews":[
		{
			"buffer":0,
			"byteLength":34224,
			"byteOffset":0,
			"target":34962
		},
		{
			"buffer":0,
			"byteLength":22816,
			"byteOffset":34224,
			"target":34962
		},
		{
			"buffer":0,
			"byteLength":34224,
			"byteOffset":57040,
			"target":34962
		},
		{
			"buffer":0,
			"byteLength":25704,
			"byteOffset":91264,
			"target":34963
		}
	],
	"buffers":[
		{
			"byteLength":116968,
			"uri":"data:application/octet-stream;base64,"
		}
	]
}
