{
	"asset":{
		"generator":"Khronos glTF Blender I/O v3.5.30",
		"version":"2.0"
	},
	"extensionsUsed":[
		"KHR_materials_specular",
		"KHR_materials_ior"
	],
	"scene":0,
	"scenes":[
		{
			"name":"Scene",
			"nodes":[
				0,
				1,
				2,
				3,
				4
			]
		}
	],
	"nodes":[
		{
			"mesh":0,
			"name":"WarrenBound.001",
			"rotation":[
				-0.4065200090408325,
				0.07089290022850037,
				-0.12540225684642792,
				0.9022139310836792
			],
			"scale":[
				4.290468692779541,
				4.270350933074951,
				0.5622334480285645
			],
			"translation":[
				0.6724527478218079,
				3.3038418292999268,
				-3.449765205383301
			]
		},
		{
			"mesh":1,
			"name":"Cube.004",
			"rotation":[
				0.9022139310836792,
				-0.12540225684642792,
				-0.07089290022850037,
				0.4065200090408325
			],
			"scale":[
				-0.39112937450408936,
				-1.657120704650879,
				-0.13252952694892883
			],
			"translation":[
				1.8399467468261719,
				3.2543628215789795,
				-3.1245357990264893
			]
		},
		{
			"mesh":2,
			"name":"Cube.005",
			"rotation":[
				0.9022139310836792,
				-0.12540225684642792,
				-0.07089290022850037,
				0.4065200090408325
			],
			"scale":[
				-0.39112937450408936,
				-1.657120704650879,
				-0.13252952694892883
			],
			"translation":[
				-0.3233172297477722,
				3.899890184402466,
				-3.062681198120117
			]
		},
		{
			"mesh":3,
			"name":"Cube.006",
			"rotation":[
				0.9001177549362183,
				-0.1268356442451477,
				-0.07538815587759018,
				0.4098994731903076
			],
			"scale":[
				-0.39112940430641174,
				-1.657120704650879,
				-0.13252952694892883
			],
			"translation":[
				0.7561335563659668,
				3.5777769088745117,
				-3.0935447216033936
			]
		},
		{
			"mesh":4,
			"name":"Plane",
			"rotation":[
				1,
				0,
				0,
				0
			],
			"scale":[
				-41.02657699584961,
				-11.653332710266113,
				-26.355911254882812
			]
		}
	],
	"materials":[
		{
			"doubleSided":true,
			"extensions":{
				"KHR_materials_specular":{
					"specularColorFactor":[
						2.371357614441398,
						2.371357614441398,
						2.371357614441398
					]
				},
				"KHR_materials_ior":{
					"ior":1.4500000476837158
				}
			},
			"name":"Material.003",
			"pbrMetallicRoughness":{
				"baseColorFactor":[
					0.7454044222831726,
					0.024157408624887466,
					0.09530749917030334,
					1
				],
				"metallicFactor":0,
				"roughnessFactor":0.34090909361839294
			}
		},
		{
			"doubleSided":true,
			"emissiveFactor":[
				1,
				1,
				1
			],
			"name":"Material.004",
			"pbrMetallicRoughness":{
				"baseColorFactor":[
					0.800000011920929,
					0.800000011920929,
					0.800000011920929,
					1
				],
				"metallicFactor":0,
				"roughnessFactor":0.11363637447357178
			}
		},
		{
			"doubleSided":true,
			"name":"Material.005",
			"pbrMetallicRoughness":{
				"metallicFactor":0,
				"roughnessFactor":0.5
			}
		}
	],
	"meshes":[
		{
			"name":"Cube.011",
			"primitives":[
				{
					"attributes":{
						"POSITION":0,
						"TEXCOORD_0":1,
						"NORMAL":2
					},
					"indices":3,
					"material":0
				}
			]
		},
		{
			"name":"Cube.012",
			"primitives":[
				{
					"attributes":{
						"POSITION":4,
						"TEXCOORD_0":5,
						"NORMAL":6
					},
					"indices":7,
					"material":1
				}
			]
		},
		{
			"name":"Cube.013",
			"primitives":[
				{
					"attributes":{
						"POSITION":8,
						"TEXCOORD_0":9,
						"NORMAL":10
					},
					"indices":7,
					"material":1
				}
			]
		},
		{
			"name":"Cube.014",
			"primitives":[
				{
					"attributes":{
						"POSITION":11,
						"TEXCOORD_0":12,
						"NORMAL":13
					},
					"indices":7,
					"material":1
				}
			]
		},
		{
			"name":"Plane",
			"primitives":[
				{
					"attributes":{
						"POSITION":14,
						"TEXCOORD_0":15,
						"NORMAL":16
					},
					"indices":17,
					"material":2
				}
			]
		}
	],
	"accessors":[
		{
			"bufferView":0,
			"componentType":5126,
			"count":76,
			"max":[
				0.83430415391922,
				0.83430415391922,
				0.83430415391922
			],
			"min":[
				-0.83430415391922,
				-0.83430415391922,
				-0.83430415391922
			],
			"type":"VEC3"
		},
		{
			"bufferView":1,
			"componentType":5126,
			"count":76,
			"type":"VEC2"
		},
		{
			"bufferView":2,
			"componentType":5126,
			"count":76,
			"type":"VEC3"
		},
		{
			"bufferView":3,
			"componentType":5123,
			"count":216,
			"type":"SCALAR"
		},
		{
			"bufferView":4,
			"componentType":5126,
			"count":14,
			"max":[
				1,
				0.8876484036445618,
				0.6000000238418579
			],
			"min":[
				-1,
				-1,
				-1
			],
			"type":"VEC3"
		},
		{
			"bufferView":5,
			"componentType":5126,
			"count":14,
			"type":"VEC2"
		},
		{
			"bufferView":6,
			"componentType":5126,
			"count":14,
			"type":"VEC3"
		},
		{
			"bufferView":7,
			"componentType":5123,
			"count":36,
			"type":"SCALAR"
		},
		{
			"bufferView":8,
			"componentType":5126,
			"count":14,
			"max":[
				1,
				0.565406858921051,
				1
			],
			"min":[
				-1,
				-1,
				-1
			],
			"type":"VEC3"
		},
		{
			"bufferView":9,
			"componentType":5126,
			"count":14,
			"type":"VEC2"
		},
		{
			"bufferView":10,
			"componentType":5126,
			"count":14,
			"type":"VEC3"
		},
		{
			"bufferView":11,
			"componentType":5126,
			"count":14,
			"max":[
				1,
				0.23168784379959106,
				1
			],
			"min":[
				-1,
				-1,
				-1
			],
			"type":"VEC3"
		},
		{
			"bufferView":12,
			"componentType":5126,
			"count":14,
			"type":"VEC2"
		},
		{
			"bufferView":13,
			"componentType":5126,
			"count":14,
			"type":"VEC3"
		},
		{
			"bufferView":14,
			"componentType":5126,
			"count":16,
			"max":[
				1,
				1.5797512531280518,
				1
			],
			"min":[
				-1,
				0,
				-1
			],
			"type":"VEC3"
		},
		{
			"bufferView":15,
			"componentType":5126,
			"count":16,
			"type":"VEC2"
		},
		{
			"bufferView":16,
			"componentType":5126,
			"count":16,
			"type":"VEC3"
		},
		{
			"bufferView":17,
			"componentType":5123,
			"count":42,
			"type":"SCALAR"
		}
	],
	"bufferViews":[
		{
			"buffer":0,
			"byteLength":912,
			"byteOffset":0,
			"target":34962
		},
		{
			"buffer":0,
			"byteLength":608,
			"byteOffset":912,
			"target":34962
		},
		{
			"buffer":0,
			"byteLength":912,
			"byteOffset":1520,
			"target":34962
		},
		{
			"buffer":0,
			"byteLength":432,
			"byteOffset":2432,
			"target":34963
		},
		{
			"buffer":0,
			"byteLength":168,
			"byteOffset":2864,
			"target":34962
		},
		{
			"buffer":0,
			"byteLength":112,
			"byteOffset":3032,
			"target":34962
		},
		{
			"buffer":0,
			"byteLength":168,
			"byteOffset":3144,
			"target":34962
		},
		{
			"buffer":0,
			"byteLength":72,
			"byteOffset":3312,
			"target":34963
		},
		{
			"buffer":0,
			"byteLength":168,
			"byteOffset":3384,
			"target":34962
		},
		{
			"buffer":0,
			"byteLength":112,
			"byteOffset":3552,
			"target":34962
		},
		{
			"buffer":0,
			"byteLength":168,
			"byteOffset":3664,
			"target":34962
		},
		{
			"buffer":0,
			"byteLength":168,
			"byteOffset":3832,
			"target":34962
		},
		{
			"buffer":0,
			"byteLength":112,
			"byteOffset":4000,
			"target":34962
		},
		{
			"buffer":0,
			"byteLength":168,
			"byteOffset":4112,
			"target":34962
		},
		{
			"buffer":0,
			"byteLength":192,
			"byteOffset":4280,
			"target":34962
		},
		{
			"buffer":0,
			"byteLength":128,
			"byteOffset":4472,
			"target":34962
		},
		{
			"buffer":0,
			"byteLength":192,
			"byteOffset":4600,
			"target":34962
		},
		{
			"buffer":0,
			"byteLength":84,
			"byteOffset":4792,
			"target":34963
		}
	],
	"buffers":[
		{
			"byteLength":4876,
			"uri":"data:application/octet-stream;base64,"
		}
	]
}
